HIERARCHY
ROOT Hips
{
	OFFSET 0.00000 0.00000 0.00000
	CHANNELS 6 Xposition Yposition Zposition Zrotation Yrotation Xrotation 
	JOINT LHipJoint
	{
		OFFSET 0 0 0
		CHANNELS 3 Zrotation Yrotation Xrotation
		JOINT LeftHip
		{
			OFFSET 1.61024 -1.73873 0.75100
			CHANNELS 3 Zrotation Yrotation Xrotation
			JOINT LeftKnee
			{
				OFFSET 2.29819 -6.31424 0.00000
				CHANNELS 3 Zrotation Yrotation Xrotation
				JOINT LeftAnkle
				{
					OFFSET 2.76618 -7.60002 0.00000
					CHANNELS 3 Zrotation Yrotation Xrotation
					JOINT LeftToe
					{
						OFFSET 0.16838 -0.46263 2.02361
						CHANNELS 3 Zrotation Yrotation Xrotation
						End Site
						{
							OFFSET 0.00000 -0.00000 1.04662
						}
					}
				}
			}
		}
	}
	JOINT RHipJoint
	{
		OFFSET 0 0 0
		CHANNELS 3 Zrotation Yrotation Xrotation
		JOINT RightHip
		{
			OFFSET -1.46153 -1.73873 0.75100
			CHANNELS 3 Zrotation Yrotation Xrotation
			JOINT RightKnee
			{
				OFFSET -2.38373 -6.54924 0.00000
				CHANNELS 3 Zrotation Yrotation Xrotation
				JOINT RightAnkle
				{
					OFFSET -2.80314 -7.70157 0.00000
					CHANNELS 3 Zrotation Yrotation Xrotation
					JOINT RightToe
					{
						OFFSET -0.16142 -0.44349 2.02101
						CHANNELS 3 Zrotation Yrotation Xrotation
						End Site
						{
							OFFSET -0.00000 -0.00000 1.04381
						}
					}
				}
			}
		}
	}
	JOINT lowerback
	{
		OFFSET 0 0 0
		CHANNELS 3 Zrotation Yrotation Xrotation
		JOINT Chest
		{
			OFFSET -0.01629 1.66985 0.14750
			CHANNELS 3 Zrotation Yrotation Xrotation
			JOINT Chest2
			{
				OFFSET 0.02086 1.62378 0.20980
				CHANNELS 3 Zrotation Yrotation Xrotation
				JOINT lowerneck
				{
					OFFSET 0 0 0
					CHANNELS 3 Zrotation Yrotation Xrotation
					JOINT Neck
					{
						OFFSET -0.05690 1.78719 0.08702
						CHANNELS 3 Zrotation Yrotation Xrotation
						JOINT Head
						{
							OFFSET 0.16035 1.73871 -0.38470
							CHANNELS 3 Zrotation Yrotation Xrotation
							End Site
							{
								OFFSET 0.05645 1.80914 -0.14081
							}
						}
					}
				}
				JOINT LeftCollar
				{
					OFFSET 0 0 0
					CHANNELS 3 Zrotation Yrotation Xrotation
					JOINT LeftShoulder
					{
						OFFSET 2.83089 1.66494 -0.46008
CHANNELS 3 Zrotation Xrotation Yrotation
						JOINT LeftElbow
						{
OFFSET 0 -5.548930 -0.000000
CHANNELS 3 Zrotation Xrotation Yrotation
							JOINT LeftWrist
							{
OFFSET 0 -3.028980 -0.000000
CHANNELS 3 Zrotation Xrotation Yrotation
								JOINT lhand
								{
									OFFSET 0 0 0
CHANNELS 3 Zrotation Xrotation Yrotation
									JOINT LFingers
									{
OFFSET 0 -0.640950 -0.000000
CHANNELS 3 Zrotation Xrotation Yrotation
										End Site
										{
OFFSET 0 -0.516750 -0.000000
										}
									}
								}
								JOINT LThumb
								{
OFFSET 0 0.000000 0.000000
CHANNELS 3 Zrotation Xrotation Yrotation
									End Site
									{
OFFSET 0 -0.524640 0.524640
									}
								}
							}
						}
					}
				}
				JOINT RightCollar
				{
					OFFSET 0 0 0
					CHANNELS 3 Zrotation Yrotation Xrotation
					JOINT RightShoulder
					{
						OFFSET -2.84442 1.45761 -0.18088
CHANNELS 3 Zrotation Xrotation Yrotation
						JOINT RightElbow
						{
OFFSET 0 -5.351900 -0.000000
CHANNELS 3 Zrotation Xrotation Yrotation
							JOINT RightWrist
							{
OFFSET 0 -3.025310 -0.000000
CHANNELS 3 Zrotation Xrotation Yrotation
								JOINT rhand
								{
									OFFSET 0 0 0
CHANNELS 3 Zrotation Xrotation Yrotation
									JOINT RFingers
									{
OFFSET 0 -0.783890 -0.000000
CHANNELS 3 Zrotation Xrotation Yrotation
										End Site
										{
OFFSET 0 -0.631990 -0.000000
										}
									}
								}
								JOINT RThumb
								{
OFFSET 0 0.000000 0.000000
CHANNELS 3 Zrotation Xrotation Yrotation
									End Site
									{
OFFSET 0 -0.641640 0.641640
									}
								}
							}
						}
					}
				}
			}
		}
	}
}
MOTION
Frames: 10
Frame Time: 0.008333333333333333
-0.558400 17.864300 0.978300 -132.361000 87.394500 -114.396000 0.000000 0.000000 0.000000 -7.805500 -30.409300 -6.229300 0.072700 1.739600 4.786600 -2.377900 27.624100 -20.920000 0.748600 -5.526700 -15.417000 0.000000 0.000000 0.000000 16.786600 17.941300 -18.390200 -0.826900 -5.801500 16.209500 0.148500 -12.182500 -15.182800 -1.191300 6.926000 -19.496200 -1.758300 -2.647000 3.903700 1.348700 -3.580900 -1.491200 2.616600 -1.726800 -3.529500 -6.413400 -4.187000 -12.033900 5.277500 -5.277300 30.095300 2.420900 -2.166800 12.224700 0.000000 -0.000000 0.000000 17.372200 22.424500 -28.865200 123.957300 -55.159800 88.929900 -21.964900 -45.657700 -36.315500 0.000000 0.000000 0.000000 -7.125000 0.000000 0.000000 -59.433300 56.493100 21.987900 0.000000 -0.000000 0.000000 -37.991900 18.329100 62.268000 -122.475700 -55.613300 -87.710600 34.224900 -27.633300 -4.044900 0.000000 0.000000 0.000000 7.125000 0.000000 -0.000000 40.030500 22.195100 30.240000
-0.650639 17.871901 1.024124 -131.081072 87.368077 -112.433649 0.000000 0.000000 0.000000 -6.978846 -30.569113 -7.639247 0.081849 1.845389 5.078600 -2.366996 27.593080 -20.967408 0.701561 -5.353452 -14.919710 0.000000 0.000000 0.000000 16.718394 17.770549 -19.695960 -0.829679 -5.811181 16.237708 0.122886 -11.592611 -14.639392 -1.224335 7.017980 -19.768639 -1.653166 -2.533571 4.987502 0.992806 -3.443365 -0.424816 2.204526 -1.678003 -3.072460 -6.561275 -4.189911 -12.027302 5.244447 -5.174676 31.411252 2.480484 -2.114026 12.761835 0.000000 0.000000 0.000000 18.967161 23.377671 -30.196867 124.730948 -54.911355 89.563941 -21.782624 -46.795165 -36.257977 0.000000 0.000000 0.000000 -7.125000 0.000000 0.000000 -59.219654 56.498031 21.870425 0.000000 0.000000 0.000000 -38.939650 18.543851 63.546345 -122.388302 -55.639155 -87.638445 33.281259 -28.140837 -4.774854 0.000000 0.000000 0.000000 7.125000 0.000000 0.000000 39.436256 21.810270 29.916448
-0.740849 17.875695 1.076260 -128.745972 87.072339 -109.718808 0.000000 0.000000 0.000000 -6.005855 -30.816224 -8.990188 0.113976 2.176377 5.993358 -2.307896 27.441933 -21.285492 0.695773 -5.332146 -14.858271 0.000000 0.000000 0.000000 17.052269 17.873025 -20.199431 -0.786647 -5.661928 15.806701 0.154018 -11.598805 -14.121963 -1.207368 6.971015 -19.629430 -1.304480 -2.400603 6.404635 0.688502 -3.245952 0.799185 1.715067 -1.591753 -2.649010 -6.242453 -4.167955 -12.506479 4.744928 -4.969369 32.988609 2.292267 -2.013670 13.498045 0.000000 0.000000 0.000000 20.390810 24.347858 -31.358873 125.347574 -54.707829 90.067903 -23.310034 -48.867863 -36.202051 0.000000 0.000000 0.000000 -7.125000 0.000000 0.000000 -60.375094 56.128023 21.963239 0.000000 0.000000 0.000000 -39.726132 19.210224 63.924489 -122.817742 -55.511076 -87.992691 36.254956 -30.487776 -3.803282 0.000000 0.000000 0.000000 7.125000 0.000000 0.000000 40.806645 21.740686 32.072192
-0.851677 17.878758 1.139981 -116.940506 86.937063 -97.246083 0.000000 0.000000 0.000000 -4.837635 -30.507776 -10.772928 0.151979 2.512028 6.922974 -2.087787 26.812165 -22.185799 0.518244 -4.612592 -12.807142 0.000000 0.000000 0.000000 17.405360 17.929956 -21.385286 -0.756435 -5.554658 15.497648 0.129193 -10.778548 -13.191385 -1.202387 6.956954 -19.587938 -1.243220 -2.067909 7.904974 0.533300 -2.783348 1.866771 1.518248 -1.357832 -2.410163 -6.087634 -4.121489 -13.033687 4.073967 -4.585842 34.693012 2.090510 -1.880351 14.328899 0.000000 0.000000 0.000000 21.490270 24.891628 -32.207431 126.125269 -54.443495 90.701614 -25.225642 -51.434919 -36.892222 0.000000 0.000000 0.000000 -7.125000 0.000000 0.000000 -62.690498 56.118349 23.355262 0.000000 0.000000 0.000000 -40.798465 19.773385 64.655138 -122.751910 -55.530885 -87.938397 35.811834 -29.986285 -5.290598 0.000000 0.000000 0.000000 7.125000 0.000000 0.000000 40.173740 20.531997 32.802968
-0.965556 17.882115 1.203821 -116.782254 86.809883 -96.061860 0.000000 0.000000 0.000000 -3.575892 -30.672872 -12.720180 0.163430 2.604481 7.179410 -2.275643 27.291149 -21.218583 0.678035 -5.264441 -14.664551 0.000000 0.000000 0.000000 17.281838 18.168383 -23.013918 -0.748810 -5.527196 15.418429 0.095115 -10.207738 -12.892054 -1.001274 6.366268 -17.851478 -1.410557 -2.015006 9.301047 0.433548 -2.703066 2.774795 1.535220 -1.308364 -2.242750 -5.989782 -3.977717 -13.769258 3.640113 -4.062945 36.710862 2.023333 -1.666837 15.410483 0.000000 0.000000 0.000000 22.060279 25.491776 -32.414150 126.358293 -54.362672 90.891089 -26.256876 -52.433211 -36.741726 0.000000 0.000000 0.000000 -7.125000 0.000000 0.000000 -63.310251 55.804313 23.212532 0.000000 0.000000 0.000000 -41.899948 20.123607 65.315638 -122.943774 -55.473075 -88.096517 35.031990 -30.794132 -5.618097 0.000000 0.000000 0.000000 7.125000 0.000000 0.000000 39.805551 20.500113 32.260372
-1.108497 17.883163 1.265019 -130.891898 86.347781 -109.258321 0.000000 0.000000 0.000000 -1.977367 -31.768498 -14.964520 0.183064 2.755569 7.598960 -2.630736 28.265943 -19.391542 1.047880 -6.508990 -18.268806 0.000000 0.000000 0.000000 17.147930 18.010329 -24.634225 -0.752121 -5.539231 15.453175 0.130679 -10.472498 -12.645174 -0.976902 6.291762 -17.633462 -1.050769 -2.146538 11.381105 0.237791 -2.808915 3.608997 1.207557 -1.338472 -2.542041 -5.904978 -3.935264 -13.578261 3.574173 -3.883658 37.647178 2.039314 -1.573551 15.818028 0.000000 0.000000 0.000000 22.889514 26.260316 -32.972052 127.058132 -54.115231 91.459029 -25.909308 -52.017495 -36.013626 0.000000 0.000000 0.000000 -7.125000 0.000000 0.000000 -62.191869 55.451157 21.928338 0.000000 0.000000 0.000000 -42.277034 20.894695 65.450835 -122.782695 -55.521617 -87.963775 35.579317 -31.952730 -5.041365 0.000000 0.000000 0.000000 7.125000 0.000000 0.000000 40.176615 20.841939 32.368145
-1.238377 17.876638 1.322690 -126.526745 86.224306 -104.065806 0.000000 0.000000 0.000000 -0.656605 -31.727261 -17.116278 0.226139 3.060793 8.447919 -2.598229 28.142828 -19.425602 1.018201 -6.419419 -18.006405 0.000000 0.000000 0.000000 17.387892 17.865032 -26.281670 -0.752989 -5.542393 15.462416 0.123187 -9.839175 -11.713652 -1.048430 6.511078 -18.274675 -1.184661 -2.011548 13.275975 0.118792 -2.589122 4.639908 1.177316 -1.204284 -2.500318 -5.662541 -3.822176 -13.574230 3.355545 -3.627540 38.164686 1.958817 -1.460239 16.051164 0.000000 0.000000 0.000000 23.078303 26.876207 -32.574811 127.605502 -53.916683 91.901934 -27.328568 -53.161881 -36.497354 0.000000 0.000000 0.000000 -7.125000 0.000000 0.000000 -63.843771 55.429200 22.903366 0.000000 0.000000 0.000000 -42.463484 21.226883 65.357468 -122.206328 -55.692718 -87.488173 36.205814 -32.700449 -4.726987 0.000000 0.000000 0.000000 7.125000 0.000000 0.000000 40.484301 20.908766 32.767886
-1.372706 17.865554 1.375503 -126.687105 86.121522 -103.022466 0.000000 0.000000 0.000000 0.826021 -31.790462 -19.413186 0.231519 3.096985 8.548933 -2.606430 28.139869 -19.262570 0.877241 -5.970923 -16.700218 0.000000 0.000000 0.000000 17.081230 18.130308 -28.672612 -0.799359 -5.706602 15.935389 0.096241 -9.265410 -11.318014 -0.872074 5.952259 -16.646336 -1.350454 -1.935338 14.791065 -0.001769 -2.439622 5.691273 1.152128 -1.104635 -2.211885 -5.542218 -3.714133 -13.779616 3.453363 -3.469306 38.580969 2.016617 -1.366355 16.307288 0.000000 0.000000 0.000000 23.597139 27.264277 -32.752861 128.312094 -53.653988 92.471986 -27.476369 -53.230921 -36.443966 0.000000 0.000000 0.000000 -7.125000 0.000000 0.000000 -63.892129 55.367382 22.822637 0.000000 0.000000 0.000000 -42.642469 21.621327 65.309055 -121.550323 -55.882336 -86.945642 35.562298 -32.065245 -5.283594 0.000000 0.000000 0.000000 7.125000 0.000000 0.000000 40.092847 20.625516 32.540021
-1.502453 17.848340 1.418955 -124.665895 85.880583 -99.577088 0.000000 0.000000 0.000000 2.768050 -31.878516 -22.898366 0.319988 3.634336 10.050413 -2.661537 28.262548 -18.791611 0.969732 -6.266802 -17.561331 0.000000 0.000000 0.000000 17.046770 18.246792 -30.939219 -0.796547 -5.696576 15.906515 0.072021 -8.507528 -10.606181 -0.801412 5.713786 -15.956168 -1.286760 -1.903447 16.479952 -0.061360 -2.320733 6.519653 1.072461 -1.015051 -2.240394 -5.149999 -3.592740 -14.459920 2.912204 -3.102595 39.244773 1.782951 -1.233251 16.783863 0.000000 0.000000 0.000000 23.860196 27.606435 -32.763590 128.526943 -53.572601 92.644968 -28.614735 -54.671335 -36.076075 0.000000 0.000000 0.000000 -7.125000 0.000000 0.000000 -64.321563 54.912068 22.284292 0.000000 0.000000 0.000000 -43.173721 22.026616 65.683407 -121.063993 -56.019666 -86.542671 34.838658 -30.333208 -6.346653 0.000000 0.000000 0.000000 7.125000 0.000000 0.000000 39.510709 19.897897 32.616611
-1.642560 17.833746 1.451160 -126.308025 85.469634 -99.687949 0.000000 0.000000 0.000000 4.349963 -30.849468 -26.979593 0.439487 4.253814 11.791904 -2.470375 27.138594 -17.100171 1.251963 -7.092501 -19.990292 0.000000 0.000000 0.000000 16.948040 18.470862 -33.434111 -0.816991 -5.767393 16.111050 0.083059 -8.308318 -10.005593 -0.767753 5.595216 -15.614499 -1.007897 -1.911107 18.345248 -0.070519 -2.188220 7.491609 0.919142 -0.907433 -2.195648 -5.002435 -3.421741 -14.641744 3.016997 -3.004212 38.416310 1.792863 -1.180350 16.376199 0.000000 0.000000 0.000000 24.135564 27.198137 -33.183514 128.443554 -53.604096 92.577903 -29.243303 -55.112785 -35.405213 0.000000 0.000000 0.000000 -7.125000 0.000000 0.000000 -64.016250 54.390996 21.160674 0.000000 0.000000 0.000000 -42.971809 22.408352 64.866804 -120.563570 -56.157896 -86.127385 36.122073 -30.831207 -5.269963 0.000000 0.000000 0.000000 7.125000 0.000000 0.000000 40.281754 20.439316 33.109371
